g body

v 0.5 0.2 4.5
v 0.5 0.2 -15.5
v -0.5 0.2 4.5
v -0.5 0.2 -15.5
v -0.5 1.4 -15.5
v -0.5 1.4 4.5
v 0.5 1.4 -15.5
v 0.5 1.4 4.5
vn 0 -1.2 0
vn -1 0 0
vn 0 0 -20
vn 0 0 20
vn 1 0 0
vn 0 1.2 0
vt -0.5 -4.5
vt -0.5 15.5
vt 0.5 -4.5
vt 0.5 15.5
vt -15.5 0.2
vt -15.5 1.4
vt 4.5 0.2
vt 4.5 1.4
vt 0.5 0.2
vt -0.5 0.2
vt 0.5 1.4
vt -0.5 1.4
vt 15.5 1.4
vt 15.5 0.2
vt -4.5 1.4
vt -4.5 0.2
vt -0.5 -15.5
vt -0.5 4.5
vt 0.5 -15.5
vt 0.5 4.5

f 3/3/1 2/2/1 1/1/1
f 2/2/1 3/3/1 4/4/1
f 3/7/2 5/6/2 4/5/2
f 5/6/2 3/7/2 6/8/2
f 5/11/3 2/10/3 4/9/3
f 2/10/3 5/11/3 7/12/3
f 8/11/4 3/10/4 1/9/4
f 3/10/4 8/11/4 6/12/4
f 8/15/5 2/14/5 7/13/5
f 2/14/5 8/15/5 1/16/5
f 5/19/6 8/18/6 7/17/6
f 8/18/6 5/19/6 6/20/6
g front

v 0.7 0 6.5
v 0.7 0 4.5
v 0.5 0 6.5
v 0.5 0 4.5
v 0.5 1.6 4.5
v 0.5 1.6 6.5
v 0.7 1.6 4.5
v 0.7 1.6 6.5
vn 0 -1.6 0
vn -0.2 0 0
vn 0 0 -2
vn 0 0 2
vn 0.2 0 0
vn 0 1.6 0
vt -0.7 -6.5
vt -0.7 -4.5
vt -0.5 -6.5
vt 4.5 0
vt 4.5 1.6
vt 6.5 0
vt 6.5 1.6
vt -0.5 0
vt -0.7 0
vt -0.5 1.6
vt -0.7 1.6
vt 0.7 0
vt 0.5 0
vt 0.7 1.6
vt 0.5 1.6
vt -4.5 1.6
vt -4.5 0
vt -6.5 1.6
vt -6.5 0
vt -0.7 4.5
vt -0.7 6.5
vt -0.5 6.5

f 11/23/7 10/22/7 9/21/7
f 10/22/7 11/23/7 12/1/7
f 11/26/8 13/25/8 12/24/8
f 13/25/8 11/26/8 14/27/8
f 13/30/9 10/29/9 12/28/9
f 10/29/9 13/30/9 15/31/9
f 16/34/10 11/33/10 9/32/10
f 11/33/10 16/34/10 14/35/10
f 16/38/11 10/37/11 15/36/11
f 10/37/11 16/38/11 9/39/11
f 13/18/12 16/41/12 15/40/12
f 16/41/12 13/18/12 14/42/12
g front

v 0.5 1.4 6.5
v 0.5 1.4 4.5
v -0.5 1.4 6.5
v -0.5 1.4 4.5
v -0.5 1.6 4.5
v -0.5 1.6 6.5
vn 0 -0.2 0
vn 0 0.2 0
vt 0.5 -6.5
vt 4.5 1.4
vt 6.5 1.4
vt 0.5 1.4
vt -0.5 1.4
vt -4.5 1.4
vt -6.5 1.4
vt 0.5 6.5

f 19/43/13 18/1/13 17/23/13
f 18/1/13 19/43/13 20/3/13
f 19/45/2 21/25/2 20/44/2
f 21/25/2 19/45/2 22/27/2
f 21/35/9 18/47/9 20/46/9
f 18/47/9 21/35/9 13/30/9
f 14/35/10 19/47/10 17/46/10
f 19/47/10 14/35/10 22/30/10
f 14/38/5 18/48/5 13/36/5
f 18/48/5 14/38/5 17/49/5
f 21/20/14 14/42/14 13/18/14
f 14/42/14 21/20/14 22/50/14
g front

v -0.5 0 6.5
v -0.5 0 4.5
v -0.7 0 6.5
v -0.7 0 4.5
v -0.7 1.6 4.5
v -0.7 1.6 6.5
vt 0.7 -6.5
vt 0.7 -4.5
vt 0.7 4.5
vt 0.7 6.5

f 25/51/7 24/3/7 23/43/7
f 24/3/7 25/51/7 26/52/7
f 25/26/8 27/25/8 26/24/8
f 27/25/8 25/26/8 28/27/8
f 27/34/9 24/33/9 26/32/9
f 24/33/9 27/34/9 21/35/9
f 22/30/10 25/29/10 23/28/10
f 25/29/10 22/30/10 28/31/10
f 22/38/11 24/37/11 21/36/11
f 24/37/11 22/38/11 23/39/11
f 27/53/12 22/50/12 21/20/12
f 22/50/12 27/53/12 28/54/12
g front

v -0.5 0.2 6.5
v 0.5 0.2 6.5
vt 6.5 0.2
vt -6.5 0.2

f 23/43/13 12/1/13 11/23/13
f 12/1/13 23/43/13 24/3/13
f 23/26/2 3/7/2 24/24/2
f 3/7/2 23/26/2 29/55/2
f 3/9/9 12/28/9 24/33/9
f 12/28/9 3/9/9 1/10/9
f 30/9/10 23/28/10 11/33/10
f 23/28/10 30/9/10 29/10/10
f 30/56/5 12/37/5 1/16/5
f 12/37/5 30/56/5 11/39/5
f 3/20/14 30/42/14 1/18/14
f 30/42/14 3/20/14 29/50/14
